<svg xmlns="http://www.w3.org/2000/svg" viewBox="0 0 800 1000" preserveAspectRatio="xMidYMid slice">
  <defs>
    <linearGradient id="bg" x1="0" y1="0" x2="1" y2="1">
      <stop offset="0%" stop-color="#1a160e"/>
      <stop offset="50%" stop-color="#12100c"/>
      <stop offset="100%" stop-color="#0c0c0c"/>
    </linearGradient>
    <linearGradient id="accent" x1="0" y1="0" x2="0" y2="1">
      <stop offset="0%" stop-color="#d4af37" stop-opacity="0.25"/>
      <stop offset="100%" stop-color="#d4af37" stop-opacity="0"/>
    </linearGradient>
    <radialGradient id="orb" cx="70%" cy="25%" r="45%">
      <stop offset="0%" stop-color="#f0c040" stop-opacity="0.22"/>
      <stop offset="100%" stop-color="#d4af37" stop-opacity="0"/>
    </radialGradient>
  </defs>
  <rect width="800" height="1000" fill="url(#bg)"/>
  <rect width="800" height="1000" fill="url(#orb)"/>
  <path d="M0 720 Q200 640 400 700 T800 680 L800 1000 L0 1000 Z" fill="#0a0a0a" opacity="0.85"/>
  <path d="M0 820 Q250 760 500 800 T800 780 L800 1000 L0 1000 Z" fill="#080808"/>
  <rect x="0" y="0" width="800" height="1000" fill="url(#accent)"/>
  <g stroke="#d4af37" stroke-opacity="0.18" fill="none">
    <path d="M80 180 H720"/>
    <path d="M80 820 H720"/>
    <path d="M120 140 V860"/>
    <path d="M680 140 V860"/>
  </g>
  <circle cx="400" cy="420" r="70" fill="none" stroke="#d4af37" stroke-opacity="0.35" stroke-width="2"/>
  <circle cx="400" cy="420" r="28" fill="#d4af37" fill-opacity="0.2"/>
  <path d="M370 420 L395 445 L440 390" fill="none" stroke="#d4af37" stroke-width="4" stroke-linecap="round" stroke-linejoin="round" opacity="0.7"/>
</svg>
